<?xml version="1.0" encoding="utf-8"?>
<!-- Generator: Adobe Illustrator 27.5.0, SVG Export Plug-In . SVG Version: 6.00 Build 0)  -->
<svg version="1.1" id="_x2018_ëîé_x5F_1" xmlns="http://www.w3.org/2000/svg" xmlns:xlink="http://www.w3.org/1999/xlink"
	 x="0px" y="0px" viewBox="0 0 3200 2000" style="enable-background:new 0 0 3200 2000;" xml:space="preserve">
<g>
	<path style="fill:#EBF3FA;" d="M2882.499,1481.421c-10.898,16.349-22.494,31.017-35.208,43.593
		c-2.934,2.934-5.867,5.587-8.801,8.244c-16.627,14.527-34.789,25.426-54.489,31.436l-109.675,0.557l-149.636,0.699l-100.036,0.419
		l-71.114,0.28h-3.213l-46.944,0.279h-25.149l-587.918-1.538h-4.75l-151.172-0.42l-404.193-0.979l-164.864-0.417h-3.913
		l-641.708-1.538c0,0-196.579-107.579-191.828-295.075c3.073-119.876,43.729-372.761,469.58-432
		c151.45-20.958,230.25-84.808,301.643-153.962c15.09-14.531,29.759-29.202,44.708-43.872
		c101.853-99.615,216.977-194.482,535.807-175.623c19.139,1.119,37.303,3.074,54.767,5.727
		c57.145,8.524,106.185,24.174,151.172,41.079c108.278,40.936,192.527,89.836,309.049,66.365
		c224.24-45.127,396.79-49.18,530.076-24.59c56.725,10.478,106.183,26.128,149.636,46.106
		c200.21,91.65,269.928,273.422,303.039,451.975C2993.293,1133.952,2964.791,1356.237,2882.499,1481.421z"/>
	<g style="opacity:0.5;">
		<path style="fill:#AFCDFB;" d="M1670.123,508.322v1061.163h-149.586V467.164C1577.121,475.72,1625.66,491.341,1670.123,508.322z"
			/>
		<g>
			<polygon style="fill:#F99746;" points="1670.123,561.134 1520.537,506.594 1520.537,571.831 1670.123,626.372 			"/>
			<g>
				<polygon style="fill:#F99746;" points="1670.123,697.599 1670.123,762.837 1520.537,708.296 1520.537,643.059 				"/>
				<polygon style="fill:#F99746;" points="1670.123,837.369 1670.123,902.607 1520.537,848.066 1520.537,782.829 				"/>
				<polygon style="fill:#F99746;" points="1670.123,977.15 1670.123,1042.377 1520.537,987.836 1520.537,922.61 				"/>
				<polygon style="fill:#F99746;" points="1670.123,1116.92 1670.123,1182.158 1520.537,1127.617 1520.537,1062.38 				"/>
			</g>
		</g>
	</g>
	<g style="opacity:0.5;">
		<path style="fill:#AFCDFB;" d="M2524.725,550.154c56.639,10.469,106.178,26.123,149.587,46.006v973.325h-149.587V550.154z"/>
		<g>
			<path style="fill:#F99746;" d="M2674.312,596.161v30.211l-149.587-54.54v-21.677
				C2581.363,560.623,2630.902,576.277,2674.312,596.161z"/>
			<g>
				<polygon style="fill:#F99746;" points="2674.311,697.599 2674.311,762.837 2524.725,708.296 2524.725,643.059 				"/>
				<polygon style="fill:#F99746;" points="2674.311,837.369 2674.311,902.607 2524.725,848.066 2524.725,782.829 				"/>
				<polygon style="fill:#F99746;" points="2674.311,977.15 2674.311,1042.377 2524.725,987.836 2524.725,922.61 				"/>
				<polygon style="fill:#F99746;" points="2674.311,1116.92 2674.311,1182.158 2524.725,1127.617 2524.725,1062.38 				"/>
			</g>
		</g>
	</g>
	<g>
		<path style="fill:#1D2949;" d="M1050.714,1429.27h1373.271l463.789-41.777c0,0-82.992-206.778-105.615-209.886
			c-22.623-3.106-1687.947,0-1687.947,0L1050.714,1429.27z"/>
		<path style="fill:#F99746;" d="M3085.911,1408.914c-34.173,13.979-240.754,17.086-240.754,17.086s4.66-253.181-208.134-223.667
			c-212.795,29.513-175.598,239.646-175.598,239.646l-1023.047,18.257c0,0,16.621-266.901-209.253-238.828
			c-187.662,23.32-139.457,237.823-139.457,237.823c-187.082,9.672-206.415-53.848-206.415-53.848v-26.23h11.733v-69.04h-11.733
			v-51.426l39.351-90.092c0,0,0,0,0.01-0.011c66.296-113.899,586.109-144.966,586.109-144.966
			c78.95-45.388,144.407-79.116,195.604-103.617c81.684-39.082,174.8-77.19,264.913-86.095
			c243.995-24.118,444.632,3.21,493.82,11.183c57.463,9.32,346.37,135.129,368.116,146.002
			c21.746,10.873,199.104,25.619,221.887,28.384c22.781,2.755,22.098,25.537,22.098,25.537l3.127,20.214l11.909,76.982l2.91,18.785
			c16.569,8.284,16.589,32.019,16.589,32.019S3120.074,1394.934,3085.911,1408.914z"/>
		<g>
			
				<ellipse transform="matrix(0.7071 -0.7071 0.7071 0.7071 -612.2424 1296.9004)" style="fill:#2C3A64;" cx="1259.376" cy="1387.492" rx="157.535" ry="157.535"/>
			<g>
				<path style="fill:#AFCDFB;" d="M1259.376,1510.692c-67.933,0-123.201-55.267-123.201-123.2s55.268-123.201,123.201-123.201
					c67.933,0,123.201,55.268,123.201,123.201S1327.309,1510.692,1259.376,1510.692z M1259.376,1275.683
					c-61.652,0-111.81,50.157-111.81,111.81s50.158,111.81,111.81,111.81s111.81-50.157,111.81-111.81
					S1321.028,1275.683,1259.376,1275.683z"/>
			</g>
			<g>
				<g>
					<polygon style="fill:#AFCDFB;" points="1280.408,1505.119 1236.267,1505.119 1250.436,1384.142 1234.243,1269.236 
						1284.689,1272.35 1267.874,1384.142 					"/>
				</g>
				<g>
					<polygon style="fill:#AFCDFB;" points="1167.788,1464.274 1145.722,1426.045 1257.582,1377.839 1349.004,1306.372 
						1371.525,1351.619 1266.299,1392.941 					"/>
				</g>
				<g>
					<polygon style="fill:#AFCDFB;" points="1150.092,1341.902 1174.343,1305.021 1267.643,1383.325 1372.549,1432.925 
						1342.232,1473.365 1258.062,1397.896 					"/>
				</g>
				<circle style="fill:#AFCDFB;" cx="1259.134" cy="1387.272" r="41.104"/>
			</g>
		</g>
		<g>
			
				<ellipse transform="matrix(0.7071 -0.7071 0.7071 0.7071 -203.1078 2284.6387)" style="fill:#2C3A64;" cx="2656.249" cy="1387.492" rx="157.535" ry="157.535"/>
			<g>
				<path style="fill:#AFCDFB;" d="M2656.249,1510.692c-67.933,0-123.201-55.267-123.201-123.2s55.269-123.201,123.201-123.201
					s123.2,55.268,123.2,123.201S2724.182,1510.692,2656.249,1510.692z M2656.249,1275.683c-61.652,0-111.81,50.157-111.81,111.81
					s50.157,111.81,111.81,111.81c61.651,0,111.81-50.157,111.81-111.81S2717.9,1275.683,2656.249,1275.683z"/>
			</g>
			<g>
				<g>
					<polygon style="fill:#AFCDFB;" points="2677.281,1505.119 2633.14,1505.119 2647.309,1384.142 2631.116,1269.236 
						2681.563,1272.35 2664.747,1384.142 					"/>
				</g>
				<g>
					<polygon style="fill:#AFCDFB;" points="2564.661,1464.274 2542.595,1426.045 2654.454,1377.839 2745.877,1306.372 
						2768.398,1351.619 2663.172,1392.941 					"/>
				</g>
				<g>
					<polygon style="fill:#AFCDFB;" points="2546.965,1341.902 2571.216,1305.021 2664.516,1383.325 2769.422,1432.925 
						2739.104,1473.365 2654.936,1397.896 					"/>
				</g>
				<circle style="fill:#AFCDFB;" cx="2656.007" cy="1387.272" r="41.104"/>
			</g>
		</g>
		<path style="fill:#F9DDBF;" d="M1100.604,1168.073H997.546c-34.102,0-65.537,18.442-82.174,48.21l-3.535,6.324
			c-3.569,6.386,1.047,14.253,8.361,14.253h124.026c8.561,0,16.732-3.579,22.538-9.871l40.445-43.838
			C1112.519,1177.396,1108.436,1168.073,1100.604,1168.073z"/>
		<path style="fill:#1D2949;" d="M975.451,1387.492h-35.173c-11.639,0-22.367,6.294-28.045,16.453l-1.206,2.159
			c-1.218,2.179,0.357,4.864,2.854,4.864h42.33c2.922,0,5.71-1.222,7.692-3.369l13.804-14.962
			C979.518,1390.674,978.125,1387.492,975.451,1387.492z"/>
		<path style="fill:#AFCDFB;" d="M2678.859,1008.696l-525.871,12.488c-10.314,0.249-18.795-8.046-18.795-18.35V881.676
			c0-9.537,7.797-17.221,17.335-17.086c224.247,3.117,301.098,9.368,347.188,25.267c40.649,14.023,135.708,71.691,184.845,100.956
			C2691.845,995.752,2688.511,1008.468,2678.859,1008.696z"/>
		<path style="fill:#AFCDFB;" d="M2088.433,863.802c8.532,0.093,16.879,0.197,25.05,0.3v158.025l-507.324,12.043
			c-6.607,0.156-9.341-8.408-3.863-12.105C1661.57,982.113,1860.115,861.213,2088.433,863.802z"/>
		<path style="fill:#AFCDFB;" d="M2677.067,1008.737l-0.279,0.011v-21.964c1.791,1.077,3.542,2.113,5.229,3.117
			C2690.758,995.099,2687.236,1008.499,2677.067,1008.737z"/>
		<polygon style="fill:#F99746;" points="2134.193,1028.501 2072.06,1023.577 2076.202,854.578 2134.193,854.578 		"/>
		<polygon style="fill:#F99746;" points="2527.709,1028.501 2498.714,1028.501 2498.714,876.74 2527.709,894.14 		"/>
		<path style="fill:#2C3A64;" d="M1669.465,981.059l15.468,51.239l-84.625,2.01c-4.936,0.117-7.066-6.21-3.058-9.093
			C1616.354,1011.469,1651.763,986.986,1669.465,981.059z"/>
		<g>
			<path style="fill:#1D2949;" d="M1596.632,1038.531c-3.458,0-6.483-2.185-7.565-5.486c-1.102-3.362,0.107-6.981,3.011-9.005
				l1.763-1.215c1.828-1.271,3.882-2.669,6.134-4.191c1.858-1.252,3.846-2.573,5.968-3.979l3.204-2.104
				c2.429-1.592,5-3.248,7.729-4.987c1.943-1.236,3.956-2.512,6.041-3.83l0.34-0.212c0.297-0.185,0.598-0.372,0.898-0.555
				c1.754-1.094,3.606-2.25,5.514-3.417l0.42-0.259c0.629-0.389,1.265-0.781,1.908-1.167c0.94-0.581,1.936-1.188,2.94-1.795
				c1.395-0.843,2.809-1.696,4.255-2.56c4.062-2.444,8.435-5.021,12.985-7.651c1.407-0.818,2.834-1.641,4.291-2.474
				c2.867-1.652,5.819-3.319,8.851-5.011v-0.002l2.129-1.194c6.113-3.397,12.307-6.765,18.409-10.009l2.007-1.058
				c0.928-0.489,1.86-0.98,2.797-1.478c11.635-6.094,23.587-12.071,35.546-17.779l3.715-1.759c3.729-1.765,7.515-3.522,11.363-5.281
				c1.271-0.588,2.569-1.175,3.881-1.762c2.557-1.166,5.174-2.333,7.819-3.5l3.966-1.745c3.95-1.741,8.161-3.552,12.863-5.531
				c2.437-1.021,4.885-2.038,7.347-3.055c16.581-6.837,33.481-13.261,50.236-19.097l3.67-1.274c1.38-0.477,2.769-0.946,4.153-1.413
				l5.227-1.752c1.411-0.47,2.825-0.932,4.238-1.393l0.164-0.054c1.473-0.487,2.96-0.969,4.447-1.44
				c2.694-0.861,5.399-1.724,8.126-2.566c1.851-0.58,3.727-1.153,5.612-1.725c2.876-0.865,5.752-1.728,8.65-2.579l4.814-1.386
				c3.031-0.865,6.071-1.719,9.133-2.551c6.053-1.665,12.224-3.283,18.331-4.807l0.366-0.094c0.542-0.138,1.079-0.275,1.624-0.404
				c2.597-0.646,5.257-1.293,7.927-1.919c1.573-0.38,3.177-0.757,4.79-1.125l1.207-0.277c1.194-0.275,2.394-0.551,3.591-0.815
				c1.594-0.36,3.198-0.714,4.811-1.068c1.615-0.354,3.227-0.698,4.841-1.041c1.631-0.344,3.253-0.678,4.879-1.011
				c1.606-0.339,3.24-0.665,4.886-0.99l0.265-0.052c1.545-0.305,3.092-0.61,4.638-0.905c1.537-0.299,3.078-0.591,4.631-0.883
				c1.746-0.325,3.484-0.637,5.235-0.949c1.11-0.204,2.238-0.399,3.367-0.596l1.583-0.276c3.308-0.566,6.61-1.118,9.922-1.638
				c1.648-0.266,3.32-0.523,4.995-0.781l0.255-0.04c2.933-0.44,5.868-0.866,8.805-1.272c5.477-0.757,10.984-1.458,16.369-2.083
				l0.353-0.041c1.514-0.174,3.021-0.348,4.536-0.503c1.052-0.122,2.166-0.238,3.269-0.344c1.073-0.13,2.251-0.248,3.43-0.354
				c1.233-0.131,2.529-0.257,3.826-0.374c1.695-0.164,3.42-0.321,5.155-0.468c1.639-0.145,3.303-0.281,4.966-0.406
				c1.319-0.107,2.582-0.208,3.854-0.301l7.363-0.499c1.451-0.094,2.9-0.178,4.363-0.261l0.639-0.033
				c1.589-0.092,3.224-0.176,4.846-0.249c1.282-0.063,2.588-0.125,3.894-0.177l0.123-0.006c1.168-0.05,2.328-0.1,3.496-0.14
				l2.884-0.104c1.146-0.038,2.293-0.072,3.439-0.104c4.528-0.141,8.748,1.538,11.971,4.674c3.218,3.132,4.991,7.331,4.991,11.82
				v130.958c0,10.885-8.853,19.951-19.733,20.209l-463.777,11.008C1596.767,1038.529,1596.699,1038.531,1596.632,1038.531z
				 M1673.223,983.707l-2.868,1.602c-3.344,1.863-6.599,3.696-9.761,5.518c-1.453,0.832-2.864,1.645-4.265,2.458
				c-4.517,2.611-8.846,5.163-12.878,7.589c-1.447,0.864-2.848,1.708-4.229,2.544c-0.983,0.595-1.956,1.188-2.919,1.782
				c-0.656,0.395-1.263,0.769-1.861,1.139l-0.438,0.269c-1.897,1.161-3.729,2.305-5.511,3.416l-1.177,0.729
				c-2.052,1.297-4.057,2.567-5.989,3.798c-2.695,1.718-5.238,3.354-7.628,4.92l-3.188,2.095c-2.097,1.388-4.065,2.696-5.901,3.934
				c-2.214,1.497-4.239,2.875-6.059,4.14l-0.841,0.581l87.125-2.065l375.58-8.917c6.422-0.152,11.646-5.502,11.646-11.927V876.354
				c0-2.235-0.883-4.324-2.484-5.883c-1.606-1.563-3.715-2.387-5.966-2.331c-1.132,0.031-2.264,0.066-3.393,0.103l-2.883,0.104
				c-1.137,0.039-2.271,0.088-3.414,0.138l-0.135,0.006c-1.296,0.052-2.578,0.113-3.851,0.175c-1.601,0.073-3.198,0.154-4.785,0.246
				l-0.643,0.033c-1.412,0.081-2.84,0.163-4.27,0.255l-7.308,0.496c-1.242,0.09-2.482,0.19-3.732,0.29
				c-1.72,0.13-3.348,0.264-4.968,0.407c-1.717,0.145-3.408,0.298-5.1,0.462c-1.282,0.115-2.534,0.237-3.786,0.37
				c-1.161,0.106-2.261,0.216-3.351,0.346c-1.145,0.111-2.206,0.222-3.257,0.343c-1.534,0.158-3.008,0.328-4.489,0.498l-0.349,0.041
				c-5.321,0.617-10.768,1.311-16.185,2.059c-2.906,0.402-5.811,0.824-8.694,1.256l-0.24,0.037c-1.654,0.255-3.31,0.51-4.955,0.774
				c-3.291,0.518-6.555,1.064-9.808,1.62l-1.578,0.275c-1.106,0.192-2.21,0.384-3.315,0.586c-1.748,0.311-3.468,0.62-5.187,0.939
				c-1.528,0.287-3.051,0.576-4.584,0.874c-1.544,0.295-3.072,0.596-4.602,0.898l-0.265,0.053c-1.608,0.317-3.205,0.634-4.802,0.972
				c-1.633,0.335-3.24,0.664-4.848,1.005c-1.591,0.338-3.188,0.679-4.785,1.028c-1.596,0.35-3.183,0.7-4.777,1.061
				c-1.195,0.264-2.37,0.535-3.54,0.804l-1.223,0.281c-1.582,0.359-3.149,0.727-4.715,1.107c-2.662,0.623-5.283,1.261-7.885,1.908
				c-0.544,0.13-1.041,0.257-1.539,0.384l-0.391,0.099c-6.059,1.512-12.165,3.113-18.166,4.763
				c-3.039,0.827-6.047,1.671-9.044,2.526l-4.784,1.377c-2.849,0.837-5.709,1.694-8.558,2.552c-1.853,0.563-3.706,1.129-5.549,1.705
				c-2.716,0.84-5.395,1.695-8.075,2.551c-1.463,0.463-2.916,0.935-4.37,1.415l-0.182,0.059c-1.396,0.456-2.793,0.912-4.189,1.377
				l-5.198,1.743c-1.365,0.461-2.734,0.921-4.09,1.391l-3.65,1.268c-16.615,5.786-33.37,12.156-49.807,18.933
				c-2.444,1.011-4.883,2.022-7.3,3.036c-4.653,1.958-8.823,3.751-12.74,5.479l-3.955,1.739c-2.614,1.153-5.197,2.306-7.75,3.469
				c-1.304,0.584-2.571,1.156-3.829,1.739c-3.835,1.752-7.587,3.494-11.289,5.246l-3.704,1.754
				c-11.847,5.654-23.706,11.584-35.227,17.619c-0.923,0.491-1.866,0.988-2.805,1.482l-1.984,1.046
				C1684.27,977.654,1678.72,980.665,1673.223,983.707z"/>
		</g>
		<g>
			<path style="fill:#1D2949;" d="M2536.378,1016.396c-3.094,0-6.04-1.216-8.326-3.444c-2.55-2.484-4.012-6.022-4.012-9.707v-88.424
				c0-5.03,0.746-11.453,4.818-13.991c3.688-2.3,9.892-0.625,13.778,1.282c4.33,2.125,7.349,3.648,8.974,4.527
				c0.174,0.088,0.411,0.218,0.65,0.35l1.765,0.959c22.034,12.038,53.408,30.984,93.251,56.315c1.697,1.071,3.387,2.148,5.06,3.216
				c4.019,2.561,7.927,5.066,11.686,7.486l13.977,9.018c2.429,1.574,4.758,3.09,6.979,4.54c0.304,0.192,0.65,0.417,0.992,0.639
				l0.305,0.198c4.654,3.033,6.717,8.81,5.14,14.381c-1.497,5.285-5.822,8.787-11.021,8.921l-1.521,0.038l-142.188,3.692
				C2536.582,1016.396,2536.48,1016.396,2536.378,1016.396z M2537.153,908.154c-1.192,0-2.153,0.449-2.73,0.81
				c-1.907,1.189-3.046,3.378-3.046,5.858v88.424c0,1.718,0.654,3.341,1.796,4.454c0.932,0.907,2.104,1.378,3.322,1.359
				l143.708-3.729c2.932-0.076,3.918-2.764,4.152-3.586c0.537-1.9,0.315-4.672-2.078-6.232l-0.305-0.198
				c-0.317-0.207-0.641-0.416-0.962-0.62c-2.258-1.472-4.579-2.985-7.004-4.555l-13.946-8.999
				c-3.759-2.419-7.659-4.919-11.671-7.476c-1.664-1.062-3.344-2.133-5.039-3.204c-39.718-25.25-70.95-44.113-92.841-56.072
				l-1.783-0.97c-0.18-0.099-0.356-0.196-0.538-0.29c-1.587-0.857-4.602-2.377-8.784-4.431
				C2538.598,908.301,2537.838,908.154,2537.153,908.154z"/>
		</g>
		<path style="fill:#2C3A64;" d="M1669.465,981.059l15.468,51.239l-84.625,2.01c-4.936,0.117-7.066-6.21-3.058-9.093
			C1616.354,1011.469,1651.763,986.986,1669.465,981.059z"/>
		<g>
			<path style="fill:#1D2949;" d="M2152.516,1025.326c-5.895,0-11.446-2.257-15.685-6.393c-4.374-4.269-6.784-9.986-6.784-16.098
				V881.672c0-5.722,2.245-11.087,6.321-15.108c4.082-4.024,9.488-6.16,15.214-6.116c231.46,3.219,303.134,8.469,348.59,25.534
				l2.688,1.008v130.03l-349.777,8.298C2152.893,1025.323,2152.704,1025.326,2152.516,1025.326z M2151.28,868.731
				c-3.427,0-6.65,1.321-9.095,3.732c-2.484,2.451-3.854,5.721-3.854,9.209v121.163c0,3.86,1.521,7.472,4.285,10.168
				c2.762,2.695,6.438,4.144,10.266,4.033l341.691-8.106V892.758c-44.229-15.699-120.088-20.923-343.107-24.026
				C2151.405,868.732,2151.343,868.731,2151.28,868.731z"/>
		</g>
		<path style="fill:#A9453D;" d="M3090.198,1142.209h-99.011c-14.73,0-28.646-6.758-37.755-18.333l-37.446-47.585
			c-3.529-4.484-0.334-11.064,5.373-11.064h156.93L3090.198,1142.209z"/>
		<path style="fill:#1D2949;" d="M1508.724,1023.618l-4.038,6.753c-15.64,26.156-43.069,43.021-73.469,45.164
			c-81.925,5.776-247.286,17.425-334.641,23.502c-118.156,8.222-173.112,68.604-173.961,69.547
			C988.911,1054.685,1508.724,1023.618,1508.724,1023.618z"/>
		<g>
			
				<rect x="1843.003" y="1125.753" transform="matrix(0.0118 -0.9999 0.9999 0.0118 955.7184 3222.6943)" style="fill:#1D2949;" width="530.603" height="4.142"/>
		</g>
		<g>
			
				<rect x="1436.272" y="1395.516" transform="matrix(0.9998 -0.0197 0.0197 0.9998 -27.1199 38.5994)" style="fill:#1D2949;" width="1023.746" height="4.143"/>
		</g>
		<path style="fill:#ED823A;" d="M2048.342,1132.048c0,5.612-25.034,10.161-55.916,10.161c-30.883,0-55.917-4.549-55.917-10.161
			c0-5.611,25.034-10.16,55.917-10.16C2023.308,1121.888,2048.342,1126.437,2048.342,1132.048z"/>
		<path style="fill:#ED823A;" d="M2569.128,1132.048c0,5.612-25.034,10.161-55.917,10.161c-30.882,0-55.916-4.549-55.916-10.161
			c0-5.611,25.034-10.16,55.916-10.16C2544.094,1121.888,2569.128,1126.437,2569.128,1132.048z"/>
		<g>
			<path style="fill:#1D2949;" d="M2420.001,1387.604l-4.137-0.225c2.858-52.747,18.491-97.202,46.464-132.13
				c22.381-27.946,52.643-49.856,89.944-65.123c56.745-23.225,112.941-23.827,124.519-23.659v-157.771h4.142v162.047l-2.157-0.09
				c-0.623-0.026-62.519-2.272-125.056,23.357c-36.613,15.005-66.29,36.501-88.206,63.888
				C2438.123,1292.129,2422.811,1335.769,2420.001,1387.604z"/>
		</g>
		<g>
			<path style="fill:#1D2949;" d="M1561.128,1405.204c-1.606-136.85,6.014-231.534,12.689-286.867
				c7.243-60.04,14.988-88.101,15.066-88.377l3.989,1.116c-0.307,1.099-30.668,112.825-27.602,374.08L1561.128,1405.204z"/>
		</g>
		<g>
			<rect x="2070.507" y="862.517" style="fill:#1D2949;" width="81.021" height="4.142"/>
		</g>
		<g>
			<g>
				
					<rect x="1331.87" y="991.011" transform="matrix(0.3712 -0.9286 0.9286 0.3712 -35.1301 1935.4557)" style="fill:#2B478B;" width="159.119" height="5.309"/>
			</g>
			<path style="fill:#2B478B;" d="M1374.504,1069.556c0-2.177,3.318-3.94,7.411-3.94c4.093,0,7.411,1.764,7.411,3.94
				s-3.318,3.94-7.411,3.94C1377.822,1073.496,1374.504,1071.732,1374.504,1069.556z"/>
		</g>
		<g>
			<path style="fill:#F99746;" d="M1506.265,1040.373c-2.441-0.461-4.667-1.966-5.96-4.311c-0.463-0.84-47.137-85.011-120.3-182.529
				c-67.263-89.653-171.309-209.267-285.004-269.968c-4.203-2.245-5.791-7.471-3.547-11.673c2.243-4.204,7.474-5.79,11.673-3.548
				c51.585,27.542,105.392,68.902,159.926,122.933c43.45,43.049,87.493,94.223,130.904,152.102
				c73.84,98.45,120.988,183.5,121.455,184.347c2.302,4.172,0.786,9.418-3.385,11.721
				C1510.2,1040.455,1508.167,1040.731,1506.265,1040.373z"/>
		</g>
	</g>
	<g>
		<path style="fill:#AFCDFB;" d="M2838.49,1533.258c-16.627,14.527-34.789,25.426-54.489,31.436l-109.675,0.557l-149.636,0.699
			l-100.036,0.419l-71.114,0.28h-3.213l-72.094,0.279h-86.902l-94.167-0.14h-73.91l-96.401-0.14h-73.909l-94.168-0.141h-74.049
			l-113.588-0.14h-12.714l-73.768-0.14h-94.447l-73.77-0.14l-96.403-0.14h-73.77l-94.308-0.141h-99.475l8.94-1.538l3.913-0.696
			l21.656-3.771l100.174-17.604h0.14l51.276-8.94H2838.49z"/>
	</g>
	<path style="fill:#F9DDBF;" d="M2279.936,681.026h-402.231c-7.175,0-13.045-5.871-13.045-13.045v-17.753
		c0-7.175,5.87-13.045,13.045-13.045h402.231c7.175,0,13.046,5.87,13.046,13.045v17.753
		C2292.981,675.156,2287.11,681.026,2279.936,681.026z"/>
	<g>
		<g>
			<path style="fill:#D2E4FF;" d="M189.706,1146.682l22.689-0.339c3.29-0.049,5.997,2.578,6.045,5.868l1.688,113.063
				c0.049,3.29-2.578,5.997-5.868,6.046l-22.689,0.339c-3.29,0.049-5.997-2.578-6.046-5.868l-1.688-113.063
				C183.789,1149.438,186.416,1146.73,189.706,1146.682z"/>
			<g>
				<path style="fill:#AED3FF;" d="M212.573,1222.846c0.086,5.733-4.493,10.45-10.226,10.535
					c-5.733,0.086-10.451-4.492-10.536-10.226c-0.085-5.733,4.493-10.45,10.226-10.536
					C207.771,1212.534,212.487,1217.112,212.573,1222.846z"/>
				<path style="fill:#D2E4FF;" d="M209.113,1222.897c0.018,1.18-0.925,2.151-2.105,2.169c-1.18,0.018-2.151-0.925-2.169-2.105
					c-0.018-1.181,0.925-2.151,2.105-2.169C208.124,1220.774,209.095,1221.717,209.113,1222.897z"/>
				<path style="fill:#D2E4FF;" d="M199.241,1223.045c0.018,1.18-0.925,2.151-2.105,2.169c-1.18,0.018-2.151-0.925-2.169-2.105
					c-0.018-1.181,0.925-2.151,2.105-2.169C198.252,1220.922,199.223,1221.864,199.241,1223.045z"/>
			</g>
			<g>
				<path style="fill:#AED3FF;" d="M212.121,1192.54c0.085,5.733-4.493,10.45-10.226,10.535c-5.733,0.086-10.45-4.492-10.536-10.226
					c-0.085-5.733,4.493-10.45,10.226-10.536C207.318,1182.229,212.035,1186.807,212.121,1192.54z"/>
				<path style="fill:#D2E4FF;" d="M208.66,1192.592c0.018,1.18-0.925,2.151-2.105,2.169c-1.18,0.018-2.151-0.925-2.169-2.105
					c-0.018-1.181,0.925-2.151,2.105-2.169C207.671,1190.469,208.643,1191.411,208.66,1192.592z"/>
				<path style="fill:#D2E4FF;" d="M198.788,1192.738c0.018,1.181-0.925,2.152-2.105,2.17c-1.181,0.018-2.152-0.926-2.169-2.105
					c-0.018-1.181,0.925-2.152,2.105-2.17C197.799,1190.615,198.771,1191.559,198.788,1192.738z"/>
			</g>
			<g>
				<path style="fill:#AED3FF;" d="M211.668,1162.233c0.086,5.733-4.493,10.45-10.226,10.536
					c-5.733,0.086-10.45-4.492-10.536-10.226c-0.086-5.733,4.493-10.45,10.226-10.536
					C206.866,1151.922,211.583,1156.501,211.668,1162.233z"/>
				<path style="fill:#D2E4FF;" d="M208.208,1162.285c0.018,1.181-0.925,2.152-2.105,2.17c-1.18,0.018-2.151-0.926-2.169-2.105
					c-0.018-1.181,0.925-2.152,2.105-2.17C207.219,1160.162,208.19,1161.105,208.208,1162.285z"/>
				<path style="fill:#D2E4FF;" d="M198.336,1162.433c0.018,1.181-0.925,2.151-2.105,2.169c-1.18,0.018-2.151-0.925-2.169-2.105
					c-0.018-1.18,0.925-2.151,2.105-2.169C197.347,1160.31,198.318,1161.252,198.336,1162.433z"/>
			</g>
			<g>
				<path style="fill:#AED3FF;" d="M213.025,1253.151c0.085,5.733-4.493,10.45-10.226,10.536
					c-5.733,0.085-10.45-4.493-10.536-10.227c-0.086-5.732,4.493-10.45,10.226-10.535
					C208.223,1242.84,212.94,1247.418,213.025,1253.151z"/>
				<path style="fill:#D2E4FF;" d="M209.565,1253.203c0.018,1.181-0.925,2.151-2.105,2.169c-1.18,0.018-2.151-0.925-2.169-2.105
					c-0.018-1.181,0.925-2.151,2.105-2.169C208.576,1251.08,209.547,1252.022,209.565,1253.203z"/>
				<path style="fill:#D2E4FF;" d="M199.693,1253.351c0.018,1.18-0.925,2.151-2.105,2.169c-1.18,0.018-2.151-0.925-2.169-2.105
					c-0.018-1.181,0.925-2.151,2.105-2.169C198.704,1251.228,199.675,1252.17,199.693,1253.351z"/>
			</g>
		</g>
		<circle style="fill:#2A4E96;" cx="200.005" cy="1192.108" r="12.376"/>
		<g>
			<path style="fill:#2A4E96;" d="M270.993,1338.899c-26.427-4.88-25.282-50.685-24.361-87.49
				c0.294-11.769,0.572-22.886-0.204-30.573c-0.712-7.057-3.605-12.486-8.599-16.137c-12.306-8.996-33.445-4.678-33.657-4.633
				l-0.64-3.039c0.92-0.193,22.717-4.642,36.13,5.165c5.735,4.193,9.051,10.36,9.855,18.332c0.795,7.882,0.516,19.093,0.219,30.963
				c-0.891,35.624-1.999,79.959,21.821,84.358L270.993,1338.899z"/>
		</g>
		<g>
			<g>
				<rect x="311.169" y="1264.117" style="fill:#CDE0FB;" width="260.546" height="260.546"/>
				<rect x="335.94" y="1524.663" style="fill:#AFCDFB;" width="10.004" height="19.419"/>
				<rect x="548.179" y="1524.663" style="fill:#AFCDFB;" width="10.003" height="19.419"/>
				<rect x="289.574" y="1524.663" style="fill:#AFCDFB;" width="10.003" height="19.419"/>
				<g>
					<polygon style="fill:#AFCDFB;" points="571.715,1264.117 311.169,1264.117 273.915,1105.059 535.407,1103.269 					"/>
					<polygon style="fill:#CDE0FB;" points="455.982,1203.674 323.696,1204.58 304.85,1124.113 437.136,1123.208 					"/>
					<g>
						<path style="fill:#F99746;" d="M464.466,1147.122c-2.91-14.864,6.782-26.915,21.646-26.915
							c14.864,0,29.273,12.051,32.183,26.915c2.91,14.864-6.782,26.914-21.646,26.914
							C481.785,1174.036,467.376,1161.986,464.466,1147.122z"/>
						<path style="fill:#7C9AF2;" d="M468.262,1147.122c-2.91-14.864,6.781-26.915,21.646-26.915
							c14.864,0,29.273,12.051,32.183,26.915c2.91,14.864-6.782,26.914-21.646,26.914
							C485.58,1174.036,471.171,1161.986,468.262,1147.122z"/>
						<path style="fill:#AFCDFB;" d="M471.074,1147.122c-2.605-13.312,6.073-24.103,19.385-24.103s26.214,10.791,28.82,24.103
							c2.606,13.312-6.073,24.103-19.385,24.103C486.583,1171.225,473.68,1160.434,471.074,1147.122z"/>
					</g>
					<g>
						<path style="fill:#F99746;" d="M477.738,1214.925c-2.909-14.864,6.782-26.914,21.646-26.914
							c14.865,0,29.273,12.05,32.183,26.914c2.909,14.864-6.782,26.915-21.646,26.915
							C495.057,1241.84,480.648,1229.789,477.738,1214.925z"/>
						<path style="fill:#7C9AF2;" d="M481.534,1214.925c-2.91-14.864,6.781-26.914,21.646-26.914
							c14.864,0,29.273,12.05,32.183,26.914c2.91,14.864-6.782,26.915-21.646,26.915
							C498.853,1241.84,484.444,1229.789,481.534,1214.925z"/>
						<path style="fill:#AFCDFB;" d="M484.696,1214.925c-2.568-13.118,5.985-23.753,19.103-23.753
							c13.119,0,25.834,10.635,28.402,23.753c2.568,13.119-5.985,23.753-19.103,23.753
							C499.98,1238.678,487.263,1228.044,484.696,1214.925z"/>
					</g>
					<g>
						<path style="fill:#F99746;" d="M332.978,1229.253c-1.361-6.951,3.171-12.586,10.123-12.586s13.69,5.635,15.05,12.586
							c1.36,6.951-3.171,12.587-10.123,12.587C341.077,1241.84,334.339,1236.204,332.978,1229.253z"/>
						<path style="fill:#7C9AF2;" d="M334.753,1229.253c-1.361-6.951,3.171-12.586,10.123-12.586c6.952,0,13.69,5.635,15.05,12.586
							c1.361,6.951-3.171,12.587-10.123,12.587C342.852,1241.84,336.114,1236.204,334.753,1229.253z"/>
						<path style="fill:#AFCDFB;" d="M336.232,1229.253c-1.201-6.135,2.799-11.107,8.934-11.107c6.135,0,12.081,4.973,13.282,11.107
							c1.201,6.135-2.799,11.108-8.934,11.108C343.379,1240.361,337.432,1235.388,336.232,1229.253z"/>
					</g>
					<g>
						<path style="fill:#F99746;" d="M368.519,1229.253c-1.36-6.951,3.171-12.586,10.123-12.586c6.951,0,13.689,5.635,15.05,12.586
							c1.361,6.951-3.171,12.587-10.123,12.587C376.618,1241.84,369.879,1236.204,368.519,1229.253z"/>
						<path style="fill:#7C9AF2;" d="M370.294,1229.253c-1.36-6.951,3.171-12.586,10.123-12.586c6.951,0,13.689,5.635,15.05,12.586
							c1.361,6.951-3.171,12.587-10.122,12.587C378.393,1241.84,371.654,1236.204,370.294,1229.253z"/>
						<path style="fill:#AFCDFB;" d="M371.772,1229.253c-1.201-6.135,2.799-11.107,8.934-11.107c6.134,0,12.081,4.973,13.282,11.107
							c1.201,6.135-2.798,11.108-8.934,11.108C378.92,1240.361,372.973,1235.388,371.772,1229.253z"/>
					</g>
					<g>
						<path style="fill:#F99746;" d="M409.815,1229.253c-1.361-6.951,3.171-12.586,10.122-12.586c6.951,0,13.69,5.635,15.05,12.586
							c1.36,6.951-3.172,12.587-10.123,12.587C417.913,1241.84,411.175,1236.204,409.815,1229.253z"/>
						<path style="fill:#7C9AF2;" d="M411.589,1229.253c-1.361-6.951,3.171-12.586,10.122-12.586c6.951,0,13.69,5.635,15.05,12.586
							c1.361,6.951-3.171,12.587-10.123,12.587C419.688,1241.84,412.95,1236.204,411.589,1229.253z"/>
						<path style="fill:#AFCDFB;" d="M413.068,1229.253c-1.201-6.135,2.799-11.107,8.934-11.107c6.135,0,12.081,4.973,13.282,11.107
							s-2.799,11.108-8.934,11.108S414.269,1235.388,413.068,1229.253z"/>
					</g>
				</g>
				<polygon style="fill:#7C9AF2;" points="273.915,1105.059 273.915,1524.663 311.169,1524.663 311.169,1264.117 				"/>
				<path style="fill:#AFCDFB;" d="M329.191,1549.719c0-6.489,5.261-11.75,11.75-11.75c6.489,0,11.75,5.261,11.75,11.75
					s-5.261,11.75-11.75,11.75C334.452,1561.469,329.191,1556.208,329.191,1549.719z"/>
				<path style="fill:#F99746;" d="M335.305,1549.719c0-3.113,2.523-5.637,5.637-5.637c3.113,0,5.637,2.523,5.637,5.637
					s-2.524,5.637-5.637,5.637C337.828,1555.355,335.305,1552.832,335.305,1549.719z"/>
				<path style="fill:#AFCDFB;" d="M541.431,1549.719c0-6.489,5.261-11.75,11.75-11.75c6.489,0,11.75,5.261,11.75,11.75
					s-5.261,11.75-11.75,11.75C546.691,1561.469,541.431,1556.208,541.431,1549.719z"/>
				<path style="fill:#F99746;" d="M547.544,1549.719c0-3.113,2.524-5.637,5.637-5.637c3.113,0,5.637,2.523,5.637,5.637
					s-2.524,5.637-5.637,5.637C550.068,1555.355,547.544,1552.832,547.544,1549.719z"/>
				<path style="fill:#AFCDFB;" d="M282.826,1549.719c0-6.489,5.261-11.75,11.75-11.75c6.49,0,11.751,5.261,11.751,11.75
					s-5.261,11.75-11.751,11.75C288.086,1561.469,282.826,1556.208,282.826,1549.719z"/>
				<path style="fill:#F99746;" d="M288.939,1549.719c0-3.113,2.523-5.637,5.637-5.637c3.113,0,5.637,2.523,5.637,5.637
					s-2.524,5.637-5.637,5.637C291.462,1555.355,288.939,1552.832,288.939,1549.719z"/>
				<rect x="345.943" y="1288.188" style="fill:#DDE7FE;" width="77.345" height="57.317"/>
				<rect x="438.624" y="1288.188" style="fill:#7C9AF2;" width="114.557" height="57.317"/>
			</g>
			<path style="fill:#7C9AF2;" d="M410.287,1462.33h-81.778c-1.281,0-2.329-1.048-2.329-2.329l0,0c0-1.281,1.048-2.329,2.329-2.329
				h81.778c1.281,0,2.329,1.048,2.329,2.329l0,0C412.616,1461.282,411.567,1462.33,410.287,1462.33z"/>
			<path style="fill:#7C9AF2;" d="M328.508,1471.561h81.778c1.281,0,2.329,1.048,2.329,2.329l0,0c0,1.281-1.048,2.329-2.329,2.329
				h-81.778c-1.281,0-2.329-1.048-2.329-2.329l0,0C326.179,1472.608,327.227,1471.561,328.508,1471.561z"/>
			<path style="fill:#7C9AF2;" d="M328.508,1485.449h81.778c1.281,0,2.329,1.048,2.329,2.329l0,0c0,1.28-1.048,2.329-2.329,2.329
				h-81.778c-1.281,0-2.329-1.049-2.329-2.329l0,0C326.179,1486.497,327.227,1485.449,328.508,1485.449z"/>
		</g>
	</g>
	<g>
		<g>
			<path style="fill:#FFB27D;" d="M1035.388,1076.453c0,0,20.952-0.229,31.891,1.945s29.665,8.873,23.622,10.497
				c-6.043,1.624-30.077,3.999-36.6,5.086c-6.522,1.086-12.097,8.333-18.913,7.246s-16.347-10.509-16.347-10.509L1035.388,1076.453z
				"/>
			<path style="fill:#FFB27D;" d="M1059.736,1104.852l-24.348-3.624c0,0,4.54-9.956,8.495-7.246s11.596,4.911,13.951,5.706
				S1059.736,1104.852,1059.736,1104.852z"/>
			<path style="fill:#233862;" d="M1028.962,1085.847c6.488-7.708,6.426-9.394,6.426-9.394s-60.94-75.439-66.346-82.766
				c-5.406-7.327-50.597-127.873-50.597-127.873l0,0c-38.045-4.859-65.06,36.133-45.585,69.175
				c23.272,39.485,47.791,80.39,54.664,89.331c23.237,30.232,89.823,69.661,89.823,69.661S1023.866,1091.9,1028.962,1085.847z"/>
			<g>
				
					<rect x="950.873" y="1068.032" transform="matrix(0.7735 0.6338 -0.6338 0.7735 909.7946 -358.7473)" style="fill:#AED3FF;" width="11.917" height="51.03"/>
				<path style="fill:#AED3FF;" d="M990.793,1066.332c-0.032,0.039-0.065,0.077-0.098,0.115c-3.034,3.538-8.401,4.164-12.161,1.411
					c-4.21-3.083-4.922-9.021-1.659-13.002c0.019-0.022,0.037-0.045,0.056-0.067c1.174-1.406-0.255-3.467-1.958-2.79
					c-2.431,0.965-4.63,2.626-6.28,4.95c-4.034,5.686-3.215,13.64,1.89,18.387c5.997,5.576,15.353,4.869,20.463-1.367
					c1.512-1.846,2.477-3.96,2.913-6.146C994.328,1065.979,991.993,1064.886,990.793,1066.332z"/>
				<path style="fill:#AED3FF;" d="M940.168,1128.113c0.031-0.039,0.063-0.078,0.094-0.118c2.872-3.67,2.431-9.056-1.008-12.201
					c-3.85-3.521-9.811-3.053-13.074,0.93c-0.019,0.022-0.037,0.045-0.055,0.067c-1.147,1.428-3.449,0.432-3.121-1.371
					c0.469-2.572,1.665-5.056,3.619-7.13c4.782-5.073,12.742-5.833,18.4-1.761c6.646,4.784,7.792,14.097,2.682,20.333
					c-1.512,1.845-3.396,3.206-5.454,4.063C940.516,1131.649,938.985,1129.575,940.168,1128.113z"/>
			</g>
			<path style="fill:#FFB27D;" d="M926.498,1083.274c0,0,23.359-1.188,27.094-0.264c3.735,0.924,14.684,6.1,14.671,7.201
				c-0.013,1.102-0.104,4.441-2.415,4.194c-2.311-0.247-4.374-1.898-4.057-0.903c0.317,0.995,9.044,1.868,8.518,6.27
				c-0.527,4.4-6.312,17.07-16.433,15.853c-10.122-1.219-27.787-16.333-29.451-16.777
				C910.313,1095.077,926.498,1083.274,926.498,1083.274z"/>
			<g>
				<path style="fill:#2C3A64;" d="M606.359,1493.916c0,0-14.525,13.463-11.691,23.027c2.834,9.566,15.942,15.943,17.714,27.634
					c1.771,11.691,8.857,18.068,15.234,18.068c6.377,0,30.402,0,30.402,0s4.694-8.228-6.643-10.707
					c-11.337-2.479-15.612-16.218-14.903-28.972c0.708-12.754-1.063-29.76-1.063-29.76l-24.091-5.668L606.359,1493.916z"/>
				<path style="fill:#2C3A64;" d="M784.56,1530.621c0,0-3.542,28.342,2.834,31.531c6.377,3.188,82.546,2.125,82.546,2.125
					s0-9.565-13.108-11.691c-13.108-2.125-36.136-9.919-40.033-27.278C812.902,1507.947,784.56,1530.621,784.56,1530.621z"/>
				<path style="fill:#F99746;" d="M853.461,1097.836c0,0-4.304,53.704-9.363,118.26c-6.876,87.694-15.146,195.412-15.964,215.818
					c-1.414,35.434-7.089,92.115-7.089,92.115s-13.456,13.466-40.387,7.79c0,0-23.999-80.913-30.854-166.523
					c-0.106-1.403-0.213-2.816-0.319-4.23c-6.377-87.151-16.294-270.67-16.294-270.67L853.461,1097.836z"/>
				<path style="fill:#ED823A;" d="M818.933,1140.78l-69.128,224.516c-0.106-1.403-0.213-2.816-0.319-4.23
					c-6.377-87.151-16.294-270.67-16.294-270.67L818.933,1140.78z"/>
				<path style="fill:#F99746;" d="M833.804,1104.213c0,0-77.586,194.497-128.602,285.9
					c-51.016,91.403-66.958,116.911-66.958,116.911s-29.228-11.691-31.885-19.662c0,0,19.509-176.458,53.673-219.474
					c19.305-24.307,19.94-72.161,28.636-121.521c11.93-67.705,37.666-140.482,37.666-140.482L833.804,1104.213z"/>
			</g>
			<path style="fill:#FFB27D;" d="M869.336,833.211c0,0,32.328,55.311,63.356,62.207c0,0-1.123-13.858-6.344-25.823
				c-1.559-3.572-1.079-7.709,1.348-10.76c1.365-1.717,2.635-3.348,3.813-4.887c7.668-10.075,11.297-16.228,11.297-16.228
				l-10.842-28.102l-7.356-19.068c-3.348,6.257-7.06,11.6-10.939,16.177C893.67,830.286,869.336,833.211,869.336,833.211z"/>
			<path style="fill:#ED975D;" d="M913.667,806.727c0,0-3.44,27.955,17.84,47.221c7.668-10.075,11.297-16.228,11.297-16.228
				l-10.842-28.102C920.662,806.323,913.667,806.727,913.667,806.727z"/>
			<path style="fill:#FFB27D;" d="M951.195,841.735c0,0-47.518-17.866-35.936-47.287c11.581-29.42,13.249-51.54,44.078-41.377
				c30.829,10.163,32.268,23.696,30.791,34.456C988.65,798.288,963.854,845.625,951.195,841.735z"/>
			<path style="fill:#2A4E96;" d="M902.02,1019.193c1.403-2.805,2.862-5.624,4.383-8.479c7.744-14.474,14.288-29.747,19.237-44.681
				c3.865-11.597,6.757-22.983,8.496-33.612c2.563-15.649,2.015-27.898-0.501-40.248c-0.02-0.095-4.811-18.927-4.85-18.998
				c-29.977-13.423-37.411-47.998-37.411-47.998s-101.506,19.487-156.853,155.767c0,0-3.577,10.094-8.187,24.94
				c-0.994,3.224-2.04,6.671-3.112,10.297C715.925,1040.784,883.261,1056.567,902.02,1019.193z"/>
			<path style="fill:#233862;" d="M804.561,923.125c0,0-28.875,50.548-11.234,89.141c17.642,38.593,60.135-20.655,60.135-20.655
				L804.561,923.125z"/>
			<path style="fill:#2B478B;" d="M907.813,740.148c-0.339-0.651-1.31-1.338-3.667-2.028c0,0,2.191-0.766,4.76-0.234
				c1.287-3.256,4.448-8.813,10.502-8.929c0,0-3.46,0.945-4.699,4.438c8.232-5.359,23.591-7.072,62.134,5.25
				c50.796,16.24,25.874,45.915,18.235,48.363c-7.639,2.447-21.938-12.494-34.659-14.403c-12.721-1.91-19.376,15.859-24.199,17.385
				c-4.823,1.525-2.119-2.532-7.235-6.501c-5.117-3.97-7.914,5.548-7.724,12.205c0.19,6.658-9.616,13.09-9.616,13.09
				s0,0-5.925-10.562c-5.925-10.563-4.815-49.18,0.639-56.193C906.841,741.407,907.321,740.778,907.813,740.148z"/>
			<path style="fill:#F99746;" d="M851.658,1120.428c1.804-57.249,31.603-63.86,50.361-101.234c1.403-2.805,2.862-5.624,4.383-8.479
				c7.744-14.474,14.288-29.747,19.237-44.681c3.865-11.597,6.757-22.983,8.496-33.612l-51.555-19.584
				c-9.896-3.759-21.03,0.436-25.997,9.785c-12.757,24.012-40.15,66.41-77.811,74.33c-27.129,5.706-43.204,8.032-52.44,8.934
				c-0.994,3.224-2.04,6.671-3.112,10.297c-7.297,24.602-17.404,55.43-14.138,78.308
				C711.603,1112.131,851.513,1125.021,851.658,1120.428z"/>
			<path style="fill:#F99746;" d="M884.084,827.104c0,0,10.169,12.412,14.136,44.764c3.367,27.458-1.914,48.884-1.914,48.884
				l-8.822-2.781c0,0,11.552-46.686-11.227-88.222C876.257,829.75,876.794,829.03,884.084,827.104z"/>
			<path style="fill:#2A4E96;" d="M934.136,1096.154c3.678-10.062,0-17.394,0-17.394s-55.604-50.822-58.935-59.913
				c-3.331-9.092,10.888-114.884,10.888-114.884s-37.483-38.924-60.444-34.291c-10.328,2.083-24.223,24.782-24.121,25.746
				c4.595,43.252,12.928,116.058,19.53,133.036c14.694,37.791,98.445,76.396,98.445,76.396S931.132,1104.374,934.136,1096.154z"/>
		</g>
		<path style="fill:#ED823A;" d="M896.399,930.295c-0.61-2.377-3.031-3.809-5.408-3.199c-2.376,0.61-3.809,3.031-3.199,5.408
			c0.61,2.377,3.031,3.809,5.408,3.199C895.577,935.093,897.009,932.672,896.399,930.295z"/>
	</g>
	<g>
		<polygon style="fill:#F99746;" points="1439.527,1533.258 1390.209,1566.229 1316.439,1566.089 1365.479,1533.258 		"/>
		<polygon style="fill:#F99746;" points="1607.884,1533.258 1558.424,1566.368 1484.656,1566.229 1533.834,1533.258 		"/>
		<polygon style="fill:#F99746;" points="1087.167,1542.198 1051.958,1565.809 978.051,1565.809 986.993,1559.803 		"/>
		<polygon style="fill:#F99746;" points="1268.936,1533.258 1220.036,1565.949 1146.266,1565.949 1195.026,1533.258 		"/>
	</g>
	<g>
		<polygon style="fill:#F99746;" points="2147.183,1533.258 2097.164,1566.788 2023.254,1566.788 2073.273,1533.258 		"/>
		<polygon style="fill:#F99746;" points="2315.538,1533.258 2265.241,1566.928 2191.331,1566.928 2241.63,1533.258 		"/>
		<polygon style="fill:#F99746;" points="1808.375,1533.258 1758.775,1566.508 1684.727,1566.508 1734.466,1533.258 		"/>
		<polygon style="fill:#F99746;" points="1902.821,1533.256 1852.943,1566.647 1926.852,1566.647 1976.73,1533.256 		"/>
	</g>
	<g>
		<polygon style="fill:#F99746;" points="2812.922,1533.258 2765.28,1565.25 2765.141,1565.25 2690.951,1565.529 2739.012,1533.258 
					"/>
		<polygon style="fill:#F99746;" points="2474.113,1533.258 2424.654,1566.368 2353.54,1566.648 2350.327,1566.648 
			2400.204,1533.258 		"/>
		<polygon style="fill:#F99746;" points="2642.471,1533.258 2593.85,1565.809 2524.69,1566.089 2519.521,1566.089 
			2568.561,1533.258 		"/>
	</g>
	<path style="fill:#2E3552;" d="M2927.913,1567.426H162.545c-1.555,0-2.827-1.271-2.827-2.826v-0.305
		c0-1.554,1.272-2.826,2.827-2.826h2765.368c1.555,0,2.827,1.272,2.827,2.826v0.305
		C2930.74,1566.154,2929.468,1567.426,2927.913,1567.426z"/>
</g>
</svg>
